<?xml version="1.0" standalone="no"?>
<!DOCTYPE svg PUBLIC "-//W3C//DTD SVG 20010904//EN"
 "http://www.w3.org/TR/2001/REC-SVG-20010904/DTD/svg10.dtd">
<svg version="1.0" xmlns="http://www.w3.org/2000/svg"
 width="171.000000pt" height="153.000000pt" viewBox="0 0 171.000000 153.000000"
 preserveAspectRatio="xMidYMid meet">

<g transform="translate(0.000000,153.000000) scale(0.100000,-0.100000)"
fill="#000000" stroke="none">
<path d="M0 765 l0 -765 855 0 855 0 0 765 0 765 -855 0 -855 0 0 -765z m775
347 c22 -11 60 -25 84 -32 24 -6 54 -22 67 -35 22 -22 24 -23 24 -5 0 38 39
20 113 -52 84 -82 99 -117 73 -169 -20 -40 -20 -39 4 -39 20 0 80 -90 80 -120
-1 -15 -2 -14 -46 45 -14 19 -14 19 -7 -5 4 -14 7 -40 6 -57 -1 -18 3 -33 8
-33 15 0 10 -17 -7 -24 -17 -7 -54 19 -54 37 0 6 -10 22 -22 36 l-23 26 27
-24 c16 -14 31 -21 35 -17 5 5 -12 26 -37 47 -29 25 -39 39 -28 39 9 0 30 -17
47 -37 17 -20 34 -33 38 -29 9 9 -101 116 -119 116 -6 0 -3 -10 8 -21 19 -22
19 -22 -8 -16 -14 4 -34 10 -45 13 -17 5 -17 5 0 -9 21 -18 22 -27 1 -27 -8 0
-12 -4 -9 -10 5 -8 -8 -44 -21 -59 -2 -2 -13 4 -24 14 -23 21 -27 80 -6 108
13 17 26 19 128 25 25 2 26 4 21 45 -6 45 -13 59 -20 40 -3 -10 -9 -10 -25 0
-16 9 -22 9 -25 0 -3 -8 -12 -9 -34 -1 l-30 10 26 25 c30 31 25 43 -20 43 -32
0 -164 24 -195 36 -11 4 -8 9 13 20 32 17 35 30 7 39 -10 3 -30 19 -44 36 -28
33 -36 36 -36 12 0 -9 -3 -14 -6 -10 -4 3 -3 14 1 24 5 10 7 25 6 33 -3 13 0
12 15 -1 11 -9 37 -26 59 -37z m-95 -122 c56 -22 187 -50 235 -50 24 0 34 -4
29 -11 -15 -25 -233 25 -314 72 -36 21 -26 19 50 -11z m279 -129 c14 -4 21
-10 16 -13 -13 -8 -85 21 -85 33 0 6 10 4 22 -2 12 -6 33 -15 47 -18z m-305
11 c5 -8 -28 -42 -39 -42 -10 0 -5 26 7 38 14 14 25 15 32 4z m402 -50 c-9 -8
-26 10 -26 26 1 15 2 15 15 -2 8 -11 13 -21 11 -24z m-346 -46 c0 -3 -5 -17
-11 -33 -5 -15 -10 -56 -10 -92 0 -81 -18 -69 -26 18 -6 65 8 111 34 111 7 0
13 -2 13 -4z m386 -204 c15 -9 16 -13 5 -26 -17 -20 -42 -21 -35 -1 6 14 -3
17 -33 14 -5 0 -7 -7 -5 -15 2 -8 -1 -14 -6 -14 -13 0 -32 47 -32 78 1 26 1
26 15 8 14 -19 15 -17 15 19 l0 39 29 -46 c16 -25 37 -51 47 -56z"/>
</g>
</svg>
